<?xml version="1.0" standalone="yes"?>

<svg version="1.1" viewBox="0.0 0.0 960.0 720.0" fill="none" stroke="none" stroke-linecap="square" stroke-miterlimit="10" xmlns="http://www.w3.org/2000/svg" xmlns:xlink="http://www.w3.org/1999/xlink"><clipPath id="p.0"><path d="m0 0l960.0 0l0 720.0l-960.0 0l0 -720.0z" clip-rule="nonzero"></path></clipPath><g clip-path="url(#p.0)"><path fill="#000000" fill-opacity="0.0" d="m0 0l960.0 0l0 720.0l-960.0 0z" fill-rule="nonzero"></path><path fill="#cfe2f3" d="m188.91339 192.87665l0 0c0 -23.865662 19.34694 -43.2126 43.2126 -43.2126l0 0c11.460693 0 22.45198 4.5527344 30.555923 12.656677c8.103912 8.103928 12.656677 19.095215 12.656677 30.555923l0 0c0 23.865646 -19.346954 43.212585 -43.2126 43.212585l0 0c-23.865662 0 -43.2126 -19.34694 -43.2126 -43.212585z" fill-rule="nonzero"></path><path stroke="#000000" stroke-width="2.0" stroke-linejoin="round" stroke-linecap="butt" d="m188.91339 192.87665l0 0c0 -23.865662 19.34694 -43.2126 43.2126 -43.2126l0 0c11.460693 0 22.45198 4.5527344 30.555923 12.656677c8.103912 8.103928 12.656677 19.095215 12.656677 30.555923l0 0c0 23.865646 -19.346954 43.212585 -43.2126 43.212585l0 0c-23.865662 0 -43.2126 -19.34694 -43.2126 -43.212585z" fill-rule="nonzero"></path><path fill="#000000" d="m226.1121 199.04071l0 -13.59375l1.8125 0l0 13.59375l-1.8125 0zm10.495804 0l-1.671875 0l0 -10.640625q-0.59375 0.578125 -1.578125 1.15625q-0.984375 0.5625 -1.765625 0.859375l0 -1.625q1.40625 -0.65625 2.453125 -1.59375q1.046875 -0.9375 1.484375 -1.8125l1.078125 0l0 13.65625z" fill-rule="nonzero"></path><path fill="#cfe2f3" d="m188.91339 365.72702l0 0c0 -23.865631 19.34694 -43.212585 43.2126 -43.212585l0 0c11.460693 0 22.45198 4.5527344 30.555923 12.656677c8.103912 8.103943 12.656677 19.095215 12.656677 30.555908l0 0c0 23.865662 -19.346954 43.212616 -43.2126 43.212616l0 0c-23.865662 0 -43.2126 -19.346954 -43.2126 -43.212616z" fill-rule="nonzero"></path><path stroke="#000000" stroke-width="2.0" stroke-linejoin="round" stroke-linecap="butt" d="m188.91339 365.72702l0 0c0 -23.865631 19.34694 -43.212585 43.2126 -43.212585l0 0c11.460693 0 22.45198 4.5527344 30.555923 12.656677c8.103912 8.103943 12.656677 19.095215 12.656677 30.555908l0 0c0 23.865662 -19.346954 43.212616 -43.2126 43.212616l0 0c-23.865662 0 -43.2126 -19.346954 -43.2126 -43.212616z" fill-rule="nonzero"></path><path fill="#000000" d="m226.1121 371.8911l0 -13.59375l1.8125 0l0 13.59375l-1.8125 0zm12.980179 -1.609375l0 1.609375l-8.984375 0q-0.015625 -0.609375 0.1875 -1.15625q0.34375 -0.921875 1.09375 -1.8125q0.765625 -0.890625 2.1875 -2.0625q2.21875 -1.8125 3.0 -2.875q0.78125 -1.0625 0.78125 -2.015625q0 -0.984375 -0.71875 -1.671875q-0.703125 -0.6875 -1.84375 -0.6875q-1.203125 0 -1.9375 0.734375q-0.71875 0.71875 -0.71875 2.0l-1.71875 -0.171875q0.171875 -1.921875 1.328125 -2.921875q1.15625 -1.015625 3.09375 -1.015625q1.953125 0 3.09375 1.09375q1.140625 1.078125 1.140625 2.6875q0 0.8125 -0.34375 1.609375q-0.328125 0.78125 -1.109375 1.65625q-0.765625 0.859375 -2.5625 2.390625q-1.5 1.265625 -1.9375 1.71875q-0.421875 0.4375 -0.703125 0.890625l6.671875 0z" fill-rule="nonzero"></path><path fill="#cfe2f3" d="m188.91339 538.57745l0 0c0 -23.865662 19.34694 -43.212616 43.2126 -43.212616l0 0c11.460693 0 22.45198 4.5527344 30.555923 12.656677c8.103912 8.103912 12.656677 19.095245 12.656677 30.555939l0 0c0 23.865662 -19.346954 43.212585 -43.2126 43.212585l0 0c-23.865662 0 -43.2126 -19.346924 -43.2126 -43.212585z" fill-rule="nonzero"></path><path stroke="#000000" stroke-width="2.0" stroke-linejoin="round" stroke-linecap="butt" d="m188.91339 538.57745l0 0c0 -23.865662 19.34694 -43.212616 43.2126 -43.212616l0 0c11.460693 0 22.45198 4.5527344 30.555923 12.656677c8.103912 8.103912 12.656677 19.095245 12.656677 30.555939l0 0c0 23.865662 -19.346954 43.212585 -43.2126 43.212585l0 0c-23.865662 0 -43.2126 -19.346924 -43.2126 -43.212585z" fill-rule="nonzero"></path><path fill="#000000" d="m226.1121 544.7415l0 -13.59375l1.8125 0l0 13.59375l-1.8125 0zm4.214554 -3.59375l1.671875 -0.21875q0.28125 1.421875 0.96875 2.046875q0.703125 0.625 1.6875 0.625q1.1875 0 2.0 -0.8125q0.8125 -0.828125 0.8125 -2.03125q0 -1.140625 -0.765625 -1.890625q-0.75 -0.75 -1.90625 -0.75q-0.46875 0 -1.171875 0.1875l0.1875 -1.46875q0.15625 0.015625 0.265625 0.015625q1.0625 0 1.90625 -0.546875q0.859375 -0.5625 0.859375 -1.71875q0 -0.921875 -0.625 -1.515625q-0.609375 -0.609375 -1.59375 -0.609375q-0.96875 0 -1.625 0.609375q-0.640625 0.609375 -0.828125 1.84375l-1.671875 -0.296875q0.296875 -1.6875 1.375 -2.609375q1.09375 -0.921875 2.71875 -0.921875q1.109375 0 2.046875 0.484375q0.9375 0.46875 1.421875 1.296875q0.5 0.828125 0.5 1.75q0 0.890625 -0.46875 1.609375q-0.46875 0.71875 -1.40625 1.15625q1.21875 0.265625 1.875 1.15625q0.671875 0.875 0.671875 2.1875q0 1.78125 -1.296875 3.015625q-1.296875 1.234375 -3.28125 1.234375q-1.796875 0 -2.984375 -1.0625q-1.171875 -1.0625 -1.34375 -2.765625z" fill-rule="nonzero"></path><path fill="#cfe2f3" d="m457.01312 106.45145l0 0c0 -23.865662 19.346954 -43.2126 43.212585 -43.2126l0 0c11.460693 0 22.452026 4.552742 30.555908 12.656677c8.103943 8.103935 12.656677 19.09523 12.656677 30.555923l0 0c0 23.865662 -19.346924 43.2126 -43.212585 43.2126l0 0c-23.865631 0 -43.212585 -19.34694 -43.212585 -43.2126z" fill-rule="nonzero"></path><path stroke="#000000" stroke-width="2.0" stroke-linejoin="round" stroke-linecap="butt" d="m457.01312 106.45145l0 0c0 -23.865662 19.346954 -43.2126 43.212585 -43.2126l0 0c11.460693 0 22.452026 4.552742 30.555908 12.656677c8.103943 8.103935 12.656677 19.09523 12.656677 30.555923l0 0c0 23.865662 -19.346924 43.2126 -43.212585 43.2126l0 0c-23.865631 0 -43.212585 -19.34694 -43.212585 -43.2126z" fill-rule="nonzero"></path><path fill="#000000" d="m489.81702 112.61551l0 -13.59375l1.8125 0l0 5.578125l7.0625 0l0 -5.578125l1.796875 0l0 13.59375l-1.796875 0l0 -6.40625l-7.0625 0l0 6.40625l-1.8125 0zm19.035461 0l-1.671875 0l0 -10.640625q-0.59375 0.578125 -1.578125 1.15625q-0.984375 0.5625 -1.765625 0.859375l0 -1.625q1.40625 -0.65625 2.453125 -1.59375q1.046875 -0.9375 1.484375 -1.8125l1.078125 0l0 13.65625z" fill-rule="nonzero"></path><path fill="#cfe2f3" d="m457.01312 279.30185l0 0c0 -23.865677 19.346954 -43.212616 43.212585 -43.212616l0 0c11.460693 0 22.452026 4.5527496 30.555908 12.656677c8.103943 8.103943 12.656677 19.095245 12.656677 30.555939l0 0c0 23.865662 -19.346924 43.212585 -43.212585 43.212585l0 0c-23.865631 0 -43.212585 -19.346924 -43.212585 -43.212585z" fill-rule="nonzero"></path><path stroke="#000000" stroke-width="2.0" stroke-linejoin="round" stroke-linecap="butt" d="m457.01312 279.30185l0 0c0 -23.865677 19.346954 -43.212616 43.212585 -43.212616l0 0c11.460693 0 22.452026 4.5527496 30.555908 12.656677c8.103943 8.103943 12.656677 19.095245 12.656677 30.555939l0 0c0 23.865662 -19.346924 43.212585 -43.212585 43.212585l0 0c-23.865631 0 -43.212585 -19.346924 -43.212585 -43.212585z" fill-rule="nonzero"></path><path fill="#000000" d="m489.81702 285.4659l0 -13.59375l1.8125 0l0 5.578125l7.0625 0l0 -5.578125l1.796875 0l0 13.59375l-1.796875 0l0 -6.40625l-7.0625 0l0 6.40625l-1.8125 0zm21.519836 -1.609375l0 1.609375l-8.984375 0q-0.015625 -0.609375 0.1875 -1.15625q0.34375 -0.921875 1.09375 -1.8125q0.765625 -0.890625 2.1875 -2.0625q2.21875 -1.8125 3.0 -2.875q0.78125 -1.0625 0.78125 -2.015625q0 -0.984375 -0.71875 -1.671875q-0.703125 -0.6875 -1.84375 -0.6875q-1.203125 0 -1.9375 0.734375q-0.71875 0.71875 -0.71875 2.0l-1.71875 -0.171875q0.171875 -1.921875 1.328125 -2.921875q1.15625 -1.015625 3.09375 -1.015625q1.953125 0 3.09375 1.09375q1.140625 1.078125 1.140625 2.6875q0 0.8125 -0.34375 1.609375q-0.328125 0.78125 -1.109375 1.65625q-0.765625 0.859375 -2.5625 2.390625q-1.5 1.265625 -1.9375 1.71875q-0.421875 0.4375 -0.703125 0.890625l6.671875 0z" fill-rule="nonzero"></path><path fill="#cfe2f3" d="m457.01312 452.15222l0 0c0 -23.865662 19.346954 -43.212585 43.212585 -43.212585l0 0c11.460693 0 22.452026 4.5527344 30.555908 12.656677c8.103943 8.103943 12.656677 19.095215 12.656677 30.555908l0 0c0 23.865662 -19.346924 43.212616 -43.212585 43.212616l0 0c-23.865631 0 -43.212585 -19.346954 -43.212585 -43.212616z" fill-rule="nonzero"></path><path stroke="#000000" stroke-width="2.0" stroke-linejoin="round" stroke-linecap="butt" d="m457.01312 452.15222l0 0c0 -23.865662 19.346954 -43.212585 43.212585 -43.212585l0 0c11.460693 0 22.452026 4.5527344 30.555908 12.656677c8.103943 8.103943 12.656677 19.095215 12.656677 30.555908l0 0c0 23.865662 -19.346924 43.212616 -43.212585 43.212616l0 0c-23.865631 0 -43.212585 -19.346954 -43.212585 -43.212616z" fill-rule="nonzero"></path><path fill="#000000" d="m489.81702 458.31628l0 -13.59375l1.8125 0l0 5.578125l7.0625 0l0 -5.578125l1.796875 0l0 13.59375l-1.796875 0l0 -6.40625l-7.0625 0l0 6.40625l-1.8125 0zm12.754211 -3.59375l1.671875 -0.21875q0.28125 1.421875 0.96875 2.046875q0.703125 0.625 1.6875 0.625q1.1875 0 2.0 -0.8125q0.8125 -0.828125 0.8125 -2.03125q0 -1.140625 -0.765625 -1.890625q-0.75 -0.75 -1.90625 -0.75q-0.46875 0 -1.171875 0.1875l0.1875 -1.46875q0.15625 0.015625 0.265625 0.015625q1.0625 0 1.90625 -0.546875q0.859375 -0.5625 0.859375 -1.71875q0 -0.921875 -0.625 -1.515625q-0.609375 -0.609375 -1.59375 -0.609375q-0.96875 0 -1.625 0.609375q-0.640625 0.609375 -0.828125 1.84375l-1.671875 -0.296875q0.296875 -1.6875 1.375 -2.609375q1.09375 -0.921875 2.71875 -0.921875q1.109375 0 2.046875 0.484375q0.9375 0.46875 1.421875 1.296875q0.5 0.828125 0.5 1.75q0 0.890625 -0.46875 1.609375q-0.46875 0.71875 -1.40625 1.15625q1.21875 0.265625 1.875 1.15625q0.671875 0.875 0.671875 2.1875q0 1.78125 -1.296875 3.015625q-1.296875 1.234375 -3.28125 1.234375q-1.796875 0 -2.984375 -1.0625q-1.171875 -1.0625 -1.34375 -2.765625z" fill-rule="nonzero"></path><path fill="#cfe2f3" d="m457.01312 625.0026l0 0c0 -23.865662 19.346954 -43.212585 43.212585 -43.212585l0 0c11.460693 0 22.452026 4.5527344 30.555908 12.656677c8.103943 8.103943 12.656677 19.095215 12.656677 30.555908l0 0c0 23.865662 -19.346924 43.212585 -43.212585 43.212585l0 0c-23.865631 0 -43.212585 -19.346924 -43.212585 -43.212585z" fill-rule="nonzero"></path><path stroke="#000000" stroke-width="2.0" stroke-linejoin="round" stroke-linecap="butt" d="m457.01312 625.0026l0 0c0 -23.865662 19.346954 -43.212585 43.212585 -43.212585l0 0c11.460693 0 22.452026 4.5527344 30.555908 12.656677c8.103943 8.103943 12.656677 19.095215 12.656677 30.555908l0 0c0 23.865662 -19.346924 43.212585 -43.212585 43.212585l0 0c-23.865631 0 -43.212585 -19.346924 -43.212585 -43.212585z" fill-rule="nonzero"></path><path fill="#000000" d="m489.81702 631.1667l0 -13.59375l1.8125 0l0 5.578125l7.0625 0l0 -5.578125l1.796875 0l0 13.59375l-1.796875 0l0 -6.40625l-7.0625 0l0 6.40625l-1.8125 0zm18.097961 0l0 -3.25l-5.90625 0l0 -1.53125l6.21875 -8.8125l1.359375 0l0 8.8125l1.84375 0l0 1.53125l-1.84375 0l0 3.25l-1.671875 0zm0 -4.78125l0 -6.140625l-4.25 6.140625l4.25 0z" fill-rule="nonzero"></path><path fill="#cfe2f3" d="m752.9344 365.72702l0 0c0 -23.865631 19.346924 -43.212585 43.212585 -43.212585l0 0c11.460693 0 22.452026 4.5527344 30.555908 12.656677c8.103943 8.103943 12.656677 19.095215 12.656677 30.555908l0 0c0 23.865662 -19.346924 43.212616 -43.212585 43.212616l0 0c-23.865662 0 -43.212585 -19.346954 -43.212585 -43.212616z" fill-rule="nonzero"></path><path stroke="#000000" stroke-width="2.0" stroke-linejoin="round" stroke-linecap="butt" d="m752.9344 365.72702l0 0c0 -23.865631 19.346924 -43.212585 43.212585 -43.212585l0 0c11.460693 0 22.452026 4.5527344 30.555908 12.656677c8.103943 8.103943 12.656677 19.095215 12.656677 30.555908l0 0c0 23.865662 -19.346924 43.212616 -43.212585 43.212616l0 0c-23.865662 0 -43.212585 -19.346954 -43.212585 -43.212616z" fill-rule="nonzero"></path><path fill="#000000" d="m784.6253 365.2661q0 -3.390625 1.8125 -5.296875q1.828125 -1.921875 4.703125 -1.921875q1.875 0 3.390625 0.90625q1.515625 0.890625 2.296875 2.5q0.796875 1.609375 0.796875 3.65625q0 2.0625 -0.84375 3.703125q-0.828125 1.625 -2.359375 2.46875q-1.53125 0.84375 -3.296875 0.84375q-1.921875 0 -3.4375 -0.921875q-1.5 -0.9375 -2.28125 -2.53125q-0.78125 -1.609375 -0.78125 -3.40625zm1.859375 0.03125q0 2.453125 1.3125 3.875q1.328125 1.40625 3.3125 1.40625q2.03125 0 3.34375 -1.421875q1.3125 -1.4375 1.3125 -4.0625q0 -1.65625 -0.5625 -2.890625q-0.546875 -1.234375 -1.640625 -1.921875q-1.078125 -0.6875 -2.421875 -0.6875q-1.90625 0 -3.28125 1.3125q-1.375 1.3125 -1.375 4.390625zm18.808289 6.59375l-1.671875 0l0 -10.640625q-0.59375 0.578125 -1.578125 1.15625q-0.984375 0.5625 -1.765625 0.859375l0 -1.625q1.40625 -0.65625 2.453125 -1.59375q1.046875 -0.9375 1.484375 -1.8125l1.078125 0l0 13.65625z" fill-rule="nonzero"></path><path fill="#000000" fill-opacity="0.0" d="m275.3386 192.87665l181.67453 -86.4252" fill-rule="nonzero"></path><path stroke="#000000" stroke-width="2.0" stroke-linejoin="round" stroke-linecap="butt" d="m275.3386 192.87665l181.67453 -86.4252" fill-rule="nonzero"></path><path fill="#000000" fill-opacity="0.0" d="m277.1391 194.26247l179.87402 85.03938" fill-rule="nonzero"></path><path stroke="#000000" stroke-width="2.0" stroke-linejoin="round" stroke-linecap="butt" d="m277.1391 194.26247l179.87402 85.03938" fill-rule="nonzero"></path><path fill="#000000" fill-opacity="0.0" d="m275.3386 192.87665l181.67453 259.27557" fill-rule="nonzero"></path><path stroke="#000000" stroke-width="2.0" stroke-linejoin="round" stroke-linecap="butt" d="m275.3386 192.87665l181.67453 259.27557" fill-rule="nonzero"></path><path fill="#000000" fill-opacity="0.0" d="m275.3386 192.87665l181.67453 432.12598" fill-rule="nonzero"></path><path stroke="#000000" stroke-width="2.0" stroke-linejoin="round" stroke-linecap="butt" d="m275.3386 192.87665l181.67453 432.12598" fill-rule="nonzero"></path><path fill="#000000" fill-opacity="0.0" d="m275.3386 365.72702l181.67453 -259.27557" fill-rule="nonzero"></path><path stroke="#000000" stroke-width="2.0" stroke-linejoin="round" stroke-linecap="butt" d="m275.3386 365.72702l181.67453 -259.27557" fill-rule="nonzero"></path><path fill="#000000" fill-opacity="0.0" d="m275.3386 365.72702l181.67453 86.4252" fill-rule="nonzero"></path><path stroke="#000000" stroke-width="2.0" stroke-linejoin="round" stroke-linecap="butt" d="m275.3386 365.72702l181.67453 86.4252" fill-rule="nonzero"></path><path fill="#000000" fill-opacity="0.0" d="m275.3386 538.57745l181.67453 -432.126" fill-rule="nonzero"></path><path stroke="#000000" stroke-width="2.0" stroke-linejoin="round" stroke-linecap="butt" d="m275.3386 538.57745l181.67453 -432.126" fill-rule="nonzero"></path><path fill="#000000" fill-opacity="0.0" d="m275.3386 365.72702l181.67453 -86.42517" fill-rule="nonzero"></path><path stroke="#000000" stroke-width="2.0" stroke-linejoin="round" stroke-linecap="butt" d="m275.3386 365.72702l181.67453 -86.42517" fill-rule="nonzero"></path><path fill="#000000" fill-opacity="0.0" d="m278.021 368.02625l178.99213 256.97638" fill-rule="nonzero"></path><path stroke="#000000" stroke-width="2.0" stroke-linejoin="round" stroke-linecap="butt" d="m278.021 368.02625l178.99213 256.97638" fill-rule="nonzero"></path><path fill="#000000" fill-opacity="0.0" d="m275.3386 538.57745l181.67453 -259.2756" fill-rule="nonzero"></path><path stroke="#000000" stroke-width="2.0" stroke-linejoin="round" stroke-linecap="butt" d="m275.3386 538.57745l181.67453 -259.2756" fill-rule="nonzero"></path><path fill="#000000" fill-opacity="0.0" d="m276.2257 539.99475l180.78741 -87.84253" fill-rule="nonzero"></path><path stroke="#000000" stroke-width="2.0" stroke-linejoin="round" stroke-linecap="butt" d="m276.2257 539.99475l180.78741 -87.84253" fill-rule="nonzero"></path><path fill="#000000" fill-opacity="0.0" d="m275.3386 538.57745l181.67453 86.42517" fill-rule="nonzero"></path><path stroke="#000000" stroke-width="2.0" stroke-linejoin="round" stroke-linecap="butt" d="m275.3386 538.57745l181.67453 86.42517" fill-rule="nonzero"></path><path fill="#000000" fill-opacity="0.0" d="m543.4383 106.45145l209.4961 259.27557" fill-rule="nonzero"></path><path stroke="#000000" stroke-width="2.0" stroke-linejoin="round" stroke-linecap="butt" d="m543.4383 106.45145l209.4961 259.27557" fill-rule="nonzero"></path><path fill="#000000" fill-opacity="0.0" d="m543.4383 279.30185l209.4961 86.42517" fill-rule="nonzero"></path><path stroke="#000000" stroke-width="2.0" stroke-linejoin="round" stroke-linecap="butt" d="m543.4383 279.30185l209.4961 86.42517" fill-rule="nonzero"></path><path fill="#000000" fill-opacity="0.0" d="m543.4383 452.15222l209.4961 -86.4252" fill-rule="nonzero"></path><path stroke="#000000" stroke-width="2.0" stroke-linejoin="round" stroke-linecap="butt" d="m543.4383 452.15222l209.4961 -86.4252" fill-rule="nonzero"></path><path fill="#000000" fill-opacity="0.0" d="m543.4383 625.0026l209.4961 -259.2756" fill-rule="nonzero"></path><path stroke="#000000" stroke-width="2.0" stroke-linejoin="round" stroke-linecap="butt" d="m543.4383 625.0026l209.4961 -259.2756" fill-rule="nonzero"></path></g></svg>

